# Blender v2.79 (sub 0) OBJ File: 'Player_Ship.obj'
# www.blender.org
mtllib bullet1.mtl
o Cone
v 0.009721 -0.436995 -0.211995
v 0.009721 -0.003464 0.029518
v 0.056838 -0.436995 -0.207354
v 0.102144 -0.436995 -0.193611
v 0.143898 -0.436995 -0.171293
v 0.180496 -0.436995 -0.141257
v 0.210532 -0.436995 -0.104659
v 0.232850 -0.436995 -0.062905
v 0.246593 -0.436995 -0.017599
v 0.251234 -0.436995 0.029518
v 0.246593 -0.436995 0.076635
v 0.232850 -0.436995 0.121941
v 0.210532 -0.436995 0.163695
v 0.180496 -0.436995 0.200293
v 0.143898 -0.436995 0.230328
v 0.102144 -0.436995 0.252647
v 0.056838 -0.436995 0.266390
v 0.009721 -0.436995 0.271031
v -0.037396 -0.436995 0.266390
v -0.082702 -0.436995 0.252647
v -0.124456 -0.436995 0.230328
v -0.161054 -0.436995 0.200293
v -0.191090 -0.436995 0.163695
v -0.213408 -0.436995 0.121941
v -0.227151 -0.436995 0.076634
v -0.231792 -0.436995 0.029518
v -0.227151 -0.436995 -0.017599
v -0.213407 -0.436995 -0.062905
v -0.191089 -0.436995 -0.104660
v -0.161054 -0.436995 -0.141258
v -0.124456 -0.436995 -0.171293
v -0.082702 -0.436995 -0.193611
v -0.037395 -0.436995 -0.207354
v -0.191089 -1.319635 -0.104660
v 0.056838 -1.319635 0.266390
v -0.227151 -1.319635 0.076635
v -0.037395 -1.319635 -0.207354
v 0.056838 -1.319635 -0.207354
v 0.102144 -1.319635 0.252647
v -0.191090 -1.319635 0.163695
v -0.161054 -1.319635 -0.141258
v 0.251234 -1.319635 0.029518
v 0.102144 -1.319635 -0.193611
v -0.213408 -1.319635 0.121941
v -0.124456 -1.319635 -0.171293
v 0.246593 -1.319635 0.076635
v 0.143898 -1.319635 -0.171293
v 0.009721 -1.319635 0.271031
v -0.082702 -1.319635 -0.193611
v 0.232850 -1.319635 0.121941
v 0.180496 -1.319635 -0.141257
v -0.037396 -1.319635 0.266390
v -0.231792 -1.319635 0.029518
v 0.210532 -1.319635 0.163695
v 0.210532 -1.319635 -0.104659
v -0.082702 -1.319635 0.252647
v -0.227151 -1.319635 -0.017599
v 0.180496 -1.319635 0.200293
v 0.232850 -1.319635 -0.062905
v -0.124456 -1.319635 0.230328
v 0.009721 -1.319635 -0.211995
v -0.213407 -1.319635 -0.062905
v 0.143898 -1.319635 0.230328
v 0.246593 -1.319635 -0.017599
v -0.161054 -1.319635 0.200293
vt 0.487500 0.974900
vt 0.446800 0.550900
vt 0.517000 0.971000
vt 0.546100 0.965100
vt 0.574800 0.957100
vt 0.602900 0.947200
vt 0.630100 0.935300
vt 0.656500 0.921600
vt 0.681900 0.906100
vt 0.706100 0.888800
vt 0.020800 0.546600
vt 0.021600 0.576300
vt 0.024400 0.606000
vt 0.029300 0.635300
vt 0.036200 0.664200
vt 0.045100 0.692600
vt 0.056000 0.720300
vt 0.068700 0.747200
vt 0.083400 0.773100
vt 0.099800 0.797900
vt 0.117900 0.821500
vt 0.137500 0.843800
vt 0.158700 0.864700
vt 0.181400 0.884000
vt 0.205300 0.901700
vt 0.230300 0.917700
vt 0.256500 0.932000
vt 0.283500 0.944300
vt 0.311400 0.954700
vt 0.339900 0.963200
vt 0.369000 0.969700
vt 0.398400 0.974100
vt 0.428000 0.976400
vt 0.457800 0.976700
vt 0.375300 0.516800
vt 0.405600 0.011600
vt 0.405600 0.516800
vt 0.792000 0.872300
vt 0.643800 0.691800
vt 0.824300 0.543700
vt 0.193200 0.516800
vt 0.223500 0.011600
vt 0.223600 0.516800
vt 0.769800 0.516800
vt 0.800100 0.011600
vt 0.800100 0.516800
vt 0.557300 0.516800
vt 0.587700 0.011600
vt 0.587700 0.516800
vt 0.344900 0.516800
vt 0.375300 0.011600
vt 0.951800 0.516800
vt 0.982200 0.011600
vt 0.982200 0.516800
vt 0.162900 0.516800
vt 0.193200 0.011600
vt 0.739400 0.516800
vt 0.769700 0.011600
vt 0.527000 0.516800
vt 0.557300 0.011600
vt 0.314600 0.516800
vt 0.344900 0.011600
vt 0.921500 0.516800
vt 0.951800 0.011600
vt 0.132500 0.516800
vt 0.162800 0.011600
vt 0.709100 0.516800
vt 0.739400 0.011600
vt 0.496700 0.516800
vt 0.527000 0.011600
vt 0.284200 0.516800
vt 0.314600 0.011600
vt 0.891100 0.516800
vt 0.921500 0.011600
vt 0.102200 0.516800
vt 0.132500 0.011600
vt 0.678700 0.516800
vt 0.709100 0.011600
vt 0.253900 0.516800
vt 0.284200 0.011600
vt 0.466300 0.516800
vt 0.496600 0.011600
vt 0.860800 0.516800
vt 0.891100 0.011600
vt 0.071800 0.516800
vt 0.102200 0.011600
vt 0.648400 0.516800
vt 0.678700 0.011600
vt 0.436000 0.516800
vt 0.466300 0.011600
vt 0.830500 0.516800
vt 0.860800 0.011600
vt 0.041500 0.516800
vt 0.071800 0.011600
vt 0.618000 0.516800
vt 0.648400 0.011600
vt 0.253900 0.011600
vt 0.435900 0.011600
vt 0.830400 0.011600
vt 0.011100 0.516800
vt 0.041500 0.011600
vt 0.618000 0.011600
vt 0.856100 0.550000
vt 0.886000 0.562400
vt 0.912900 0.580400
vt 0.935800 0.603300
vt 0.953800 0.630200
vt 0.966200 0.660100
vt 0.972500 0.691800
vt 0.972500 0.724200
vt 0.966200 0.755900
vt 0.912900 0.835600
vt 0.953800 0.785800
vt 0.935800 0.812800
vt 0.886000 0.853600
vt 0.856100 0.866000
vt 0.824300 0.872300
vt 0.760200 0.866000
vt 0.730300 0.853600
vt 0.703400 0.835600
vt 0.680500 0.812800
vt 0.662500 0.785800
vt 0.650100 0.755900
vt 0.643800 0.724200
vt 0.650100 0.660100
vt 0.662500 0.630200
vt 0.680500 0.603300
vt 0.703400 0.580400
vt 0.730300 0.562400
vt 0.760200 0.550000
vt 0.792000 0.543700
vt 0.011100 0.011600
vn 0.0857 0.4849 -0.8704
vn 0.2539 0.4849 -0.8369
vn 0.4123 0.4849 -0.7713
vn 0.5548 0.4849 -0.6761
vn 0.6761 0.4849 -0.5548
vn 0.7713 0.4849 -0.4123
vn 0.8369 0.4849 -0.2539
vn 0.8704 0.4849 -0.0857
vn 0.8704 0.4849 0.0857
vn 0.8369 0.4849 0.2539
vn 0.7713 0.4849 0.4123
vn 0.6761 0.4849 0.5548
vn 0.5548 0.4849 0.6761
vn 0.4123 0.4849 0.7713
vn 0.2539 0.4849 0.8369
vn 0.0857 0.4849 0.8704
vn -0.0857 0.4849 0.8704
vn -0.2539 0.4849 0.8369
vn -0.4123 0.4849 0.7713
vn -0.5548 0.4849 0.6761
vn -0.6761 0.4849 0.5548
vn -0.7713 0.4849 0.4123
vn -0.8369 0.4849 0.2539
vn -0.8704 0.4849 0.0857
vn -0.8704 0.4849 -0.0857
vn -0.8369 0.4849 -0.2539
vn -0.7713 0.4849 -0.4123
vn -0.6761 0.4849 -0.5548
vn -0.5548 0.4849 -0.6761
vn -0.4123 0.4849 -0.7713
vn -0.2539 0.4849 -0.8369
vn -0.0857 0.4849 -0.8704
vn -0.7730 0.0000 -0.6344
vn 0.0000 -1.0000 -0.0000
vn 0.2903 0.0000 -0.9569
vn 0.2903 -0.0000 0.9569
vn -0.8819 -0.0000 0.4714
vn -0.6344 0.0000 -0.7730
vn 0.9952 0.0000 0.0980
vn 0.4714 0.0000 -0.8819
vn 0.0980 -0.0000 0.9952
vn -0.9569 0.0000 0.2903
vn -0.4714 0.0000 -0.8819
vn 0.9569 -0.0000 0.2903
vn 0.6344 0.0000 -0.7730
vn -0.0980 -0.0000 0.9952
vn -0.9952 0.0000 0.0980
vn -0.2903 0.0000 -0.9569
vn 0.8819 -0.0000 0.4714
vn 0.7730 0.0000 -0.6344
vn -0.2903 -0.0000 0.9569
vn -0.0980 0.0000 -0.9952
vn -0.9952 -0.0000 -0.0980
vn 0.7730 -0.0000 0.6344
vn 0.8819 0.0000 -0.4714
vn -0.4714 -0.0000 0.8819
vn -0.9569 0.0000 -0.2903
vn 0.6344 -0.0000 0.7730
vn 0.9569 0.0000 -0.2903
vn -0.6344 -0.0000 0.7730
vn 0.0980 0.0000 -0.9952
vn -0.8819 0.0000 -0.4714
vn 0.4714 -0.0000 0.8819
vn 0.9952 -0.0000 -0.0980
vn -0.7730 -0.0000 0.6344
usemtl None
s 1
f 1/1/1 2/2/1 3/3/1
f 3/3/2 2/2/2 4/4/2
f 4/4/3 2/2/3 5/5/3
f 5/5/4 2/2/4 6/6/4
f 6/6/5 2/2/5 7/7/5
f 7/7/6 2/2/6 8/8/6
f 8/8/7 2/2/7 9/9/7
f 9/9/8 2/2/8 10/10/8
f 10/11/9 2/2/9 11/12/9
f 11/12/10 2/2/10 12/13/10
f 12/13/11 2/2/11 13/14/11
f 13/14/12 2/2/12 14/15/12
f 14/15/13 2/2/13 15/16/13
f 15/16/14 2/2/14 16/17/14
f 16/17/15 2/2/15 17/18/15
f 17/18/16 2/2/16 18/19/16
f 18/19/17 2/2/17 19/20/17
f 19/20/18 2/2/18 20/21/18
f 20/21/19 2/2/19 21/22/19
f 21/22/20 2/2/20 22/23/20
f 22/23/21 2/2/21 23/24/21
f 23/24/22 2/2/22 24/25/22
f 24/25/23 2/2/23 25/26/23
f 25/26/24 2/2/24 26/27/24
f 26/27/25 2/2/25 27/28/25
f 27/28/26 2/2/26 28/29/26
f 28/29/27 2/2/27 29/30/27
f 29/30/28 2/2/28 30/31/28
f 30/31/29 2/2/29 31/32/29
f 31/32/30 2/2/30 32/33/30
f 32/33/31 2/2/31 33/34/31
f 33/34/32 2/2/32 1/1/32
f 30/35/33 34/36/33 29/37/33
f 35/38/34 36/39/34 37/40/34
f 4/41/35 38/42/35 3/43/35
f 17/44/36 39/45/36 16/46/36
f 24/47/37 40/48/37 23/49/37
f 31/50/38 41/51/38 30/35/38
f 11/52/39 42/53/39 10/54/39
f 5/55/40 43/56/40 4/41/40
f 18/57/41 35/58/41 17/44/41
f 25/59/42 44/60/42 24/47/42
f 32/61/43 45/62/43 31/50/43
f 12/63/44 46/64/44 11/52/44
f 6/65/45 47/66/45 5/55/45
f 19/67/46 48/68/46 18/57/46
f 26/69/47 36/70/47 25/59/47
f 33/71/48 49/72/48 32/61/48
f 13/73/49 50/74/49 12/63/49
f 7/75/50 51/76/50 6/65/50
f 20/77/51 52/78/51 19/67/51
f 1/79/52 37/80/52 33/71/52
f 27/81/53 53/82/53 26/69/53
f 14/83/54 54/84/54 13/73/54
f 8/85/55 55/86/55 7/75/55
f 21/87/56 56/88/56 20/77/56
f 28/89/57 57/90/57 27/81/57
f 15/91/58 58/92/58 14/83/58
f 9/93/59 59/94/59 8/85/59
f 22/95/60 60/96/60 21/87/60
f 3/43/61 61/97/61 1/79/61
f 29/37/62 62/98/62 28/89/62
f 16/46/63 63/99/63 15/91/63
f 10/100/64 64/101/64 9/93/64
f 23/49/65 65/102/65 22/95/65
f 30/35/33 41/51/33 34/36/33
f 37/40/34 61/103/34 38/104/34
f 38/104/34 43/105/34 37/40/34
f 47/106/34 51/107/34 55/108/34
f 55/108/34 59/109/34 64/110/34
f 64/110/34 42/111/34 54/112/34
f 46/113/34 50/114/34 54/112/34
f 54/112/34 58/115/34 63/116/34
f 63/116/34 39/117/34 54/112/34
f 35/38/34 48/118/34 52/119/34
f 52/119/34 56/120/34 35/38/34
f 60/121/34 65/122/34 36/39/34
f 40/123/34 44/124/34 36/39/34
f 36/39/34 53/125/34 57/126/34
f 57/126/34 62/127/34 36/39/34
f 34/128/34 41/129/34 37/40/34
f 45/130/34 49/131/34 37/40/34
f 37/40/34 43/105/34 47/106/34
f 47/106/34 55/108/34 37/40/34
f 42/111/34 46/113/34 54/112/34
f 54/112/34 39/117/34 35/38/34
f 35/38/34 56/120/34 60/121/34
f 65/122/34 40/123/34 36/39/34
f 36/39/34 62/127/34 34/128/34
f 41/129/34 45/130/34 37/40/34
f 37/40/34 55/108/34 64/110/34
f 64/110/34 54/112/34 35/38/34
f 35/38/34 60/121/34 36/39/34
f 36/39/34 34/128/34 37/40/34
f 37/40/34 64/110/34 35/38/34
f 4/41/35 43/56/35 38/42/35
f 17/44/36 35/58/36 39/45/36
f 24/47/37 44/60/37 40/48/37
f 31/50/38 45/62/38 41/51/38
f 11/52/39 46/64/39 42/53/39
f 5/55/40 47/66/40 43/56/40
f 18/57/41 48/68/41 35/58/41
f 25/59/42 36/70/42 44/60/42
f 32/61/43 49/72/43 45/62/43
f 12/63/44 50/74/44 46/64/44
f 6/65/45 51/76/45 47/66/45
f 19/67/46 52/78/46 48/68/46
f 26/69/47 53/82/47 36/70/47
f 33/71/48 37/80/48 49/72/48
f 13/73/49 54/84/49 50/74/49
f 7/75/50 55/86/50 51/76/50
f 20/77/51 56/88/51 52/78/51
f 1/79/52 61/97/52 37/80/52
f 27/81/53 57/90/53 53/82/53
f 14/83/54 58/92/54 54/84/54
f 8/85/55 59/94/55 55/86/55
f 21/87/56 60/96/56 56/88/56
f 28/89/57 62/98/57 57/90/57
f 15/91/58 63/99/58 58/92/58
f 9/93/59 64/101/59 59/94/59
f 22/95/60 65/102/60 60/96/60
f 3/43/61 38/42/61 61/97/61
f 29/37/62 34/36/62 62/98/62
f 16/46/63 39/45/63 63/99/63
f 10/100/64 42/132/64 64/101/64
f 23/49/65 40/48/65 65/102/65
