# Blender v2.79 (sub 0) OBJ File: 'Orbit.obj'
# www.blender.org
o Cube.001
v -0.533491 -0.658420 0.636909
v -0.621759 -0.683528 0.349821
v -1.092887 -1.409051 0.621250
v -1.083360 -1.406963 0.732156
v -0.509002 -1.005824 0.099709
v -0.501864 -0.503803 0.104728
v -0.390624 -0.487691 -0.007711
v -0.390624 -0.992048 -0.007711
v -0.489690 -0.107837 0.287341
v -0.476612 0.033324 0.105658
v -0.375944 0.070125 0.465207
v 0.000000 -0.478292 0.676476
v 0.000000 0.124390 0.508600
v -0.386518 0.063585 -0.007121
v -0.366618 0.509645 0.165472
v 0.000000 0.596833 0.192954
v 0.000000 0.605009 0.010758
v -0.345806 0.589898 0.010543
v -0.555411 -1.171746 0.712252
v -1.128652 -1.694527 0.752267
v -0.664098 -1.171280 0.305900
v -0.542208 -1.578251 0.102901
v -0.638141 -1.650365 0.318176
v 0.000000 -1.014137 0.705239
v -0.457031 -2.130637 0.211413
v -0.736107 -1.729609 0.201512
v -0.738898 -2.081057 0.193311
v -0.391934 -1.553626 -0.007060
v -0.540319 -1.649179 0.586211
v 0.000000 -1.561986 0.593588
v 0.000000 -2.195926 0.074189
v -0.452488 -2.126991 0.097054
v -0.359959 -2.001113 0.002736
v 0.000000 -2.010346 -0.002594
v -0.375803 -2.011312 0.341700
v 0.000000 -2.195925 0.221490
v 0.000000 -2.010346 0.344097
v 0.000000 -2.310322 0.131940
v -0.281927 -2.301193 0.134632
v 0.000000 -0.483016 -0.032800
v 0.000000 -0.998227 -0.032800
v 0.000000 0.076151 -0.029337
v 0.000000 -1.551788 -0.029284
v -1.136465 -1.694527 0.633386
v -1.094942 -1.917335 0.618787
v -1.084554 -1.919087 0.725325
v -0.281927 -2.301193 0.175283
v 0.000000 -2.310322 0.175967
v -0.725509 -1.721099 0.122271
v -0.738898 -2.081057 0.116980
v -0.556206 -2.279197 0.116028
v -0.749038 -2.274061 0.117543
v -0.556206 -2.279196 0.194263
v -0.749038 -2.274061 0.193878
v -0.726125 -2.382704 0.184424
v -0.586951 -2.382704 0.184424
v -0.586951 -2.382704 0.126997
v -0.726125 -2.382704 0.126997
v 0.533491 -0.658420 0.636908
v 1.083361 -1.406963 0.732156
v 1.092887 -1.409051 0.621250
v 0.621759 -0.683528 0.349820
v 0.509002 -1.005824 0.099708
v 0.390624 -0.992048 -0.007712
v 0.390624 -0.487691 -0.007712
v 0.501864 -0.503803 0.104728
v 0.476612 0.033324 0.105658
v 0.489690 -0.107837 0.287340
v 0.375945 0.070125 0.465206
v 0.386518 0.063585 -0.007121
v 0.366618 0.509645 0.165471
v 0.345806 0.589898 0.010543
v 0.555411 -1.171746 0.712252
v 1.128653 -1.694527 0.752267
v 0.664098 -1.171280 0.305900
v 0.638141 -1.650365 0.318176
v 0.542208 -1.578251 0.102901
v 0.457031 -2.130637 0.211412
v 0.738898 -2.081057 0.193310
v 0.736107 -1.729609 0.201511
v 0.391934 -1.553626 -0.007061
v 0.540319 -1.649179 0.586210
v 0.359959 -2.001113 0.002736
v 0.452488 -2.126991 0.097053
v 0.375804 -2.011312 0.341700
v 0.281927 -2.301193 0.134632
v 1.136465 -1.694527 0.633385
v 1.084554 -1.919087 0.725324
v 1.094942 -1.917335 0.618786
v 0.281927 -2.301193 0.175282
v 0.738898 -2.081057 0.116979
v 0.725509 -1.721099 0.122271
v 0.749038 -2.274061 0.117543
v 0.556206 -2.279197 0.116028
v 0.556206 -2.279196 0.194262
v 0.586951 -2.382704 0.184424
v 0.726125 -2.382704 0.184423
v 0.749038 -2.274061 0.193877
v 0.586951 -2.382704 0.126997
v 0.726125 -2.382704 0.126997
vt 0.964226 0.337857
vt 0.967803 0.240327
vt 0.984847 0.240741
vt 0.881462 0.358276
vt 0.864481 0.283804
vt 0.881974 0.284771
vt 0.908586 0.416625
vt 0.880097 0.436510
vt 0.914076 0.636562
vt 0.912382 0.736695
vt 0.875182 0.659888
vt 0.712318 0.683406
vt 0.676895 0.823068
vt 0.587987 0.688182
vt 0.863240 0.357799
vt 0.351163 0.731498
vt 0.391111 0.788038
vt 0.354441 0.785748
vt 0.170882 0.280326
vt 0.043571 0.272877
vt 0.011823 0.219122
vt 0.915360 0.264602
vt 0.884121 0.201550
vt 0.918241 0.193765
vt 0.215269 0.381290
vt 0.297841 0.270194
vt 0.339600 0.376513
vt 0.920626 0.335332
vt 0.277466 0.498256
vt 0.341245 0.414997
vt 0.340049 0.489141
vt 0.631936 0.269880
vt 0.650100 0.352467
vt 0.626391 0.357822
vt 0.254725 0.163697
vt 0.713187 0.452256
vt 0.655107 0.421319
vt 0.712941 0.422660
vt 0.141295 0.106854
vt 0.204109 0.044257
vt 0.218967 0.079008
vt 0.668080 0.469285
vt 0.640576 0.441998
vt 0.294283 0.758123
vt 0.344540 0.689336
vt 0.344540 0.786102
vt 0.899559 0.770419
vt 0.948912 0.742036
vt 0.945286 0.824171
vt 0.712249 0.913893
vt 0.758881 0.805102
vt 0.794833 0.903375
vt 0.713405 0.187705
vt 0.650524 0.266226
vt 0.650719 0.188782
vt 0.651594 0.104142
vt 0.658414 0.023579
vt 0.713635 0.101894
vt 0.713007 0.351866
vt 0.713206 0.266816
vt 0.887343 0.504080
vt 0.861945 0.438586
vt 0.970701 0.199465
vt 0.988994 0.199634
vt 0.985061 0.165614
vt 0.148153 0.870176
vt 0.078308 0.954225
vt 0.076016 0.798908
vt 0.044904 0.902969
vt 0.014814 0.716781
vt 0.136338 0.186841
vt 0.003311 0.171889
vt 0.520540 0.433762
vt 0.498003 0.541145
vt 0.461871 0.427589
vt 0.364031 0.608516
vt 0.369653 0.579545
vt 0.372988 0.608476
vt 0.137543 0.045186
vt 0.195040 0.022367
vt 0.302744 0.600764
vt 0.285299 0.559019
vt 0.294258 0.559238
vt 0.901153 0.184013
vt 0.888989 0.132269
vt 0.900772 0.132491
vt 0.888821 0.184791
vt 0.594640 0.435230
vt 0.623925 0.465641
vt 0.592938 0.464874
vt 0.596953 0.380034
vt 0.341245 0.529975
vt 0.305004 0.551877
vt 0.298692 0.529970
vt 0.461871 0.629116
vt 0.480863 0.590431
vt 0.487126 0.629117
vt 0.889626 0.104184
vt 0.901409 0.104406
vt 0.465069 0.568976
vt 0.475339 0.553380
vt 0.477708 0.568397
vt 0.463645 0.591220
vt 0.618989 0.481691
vt 0.596618 0.481691
vt 0.900047 0.087922
vt 0.003839 0.588457
vt 0.082389 0.417454
vt 0.069561 0.598109
vt 0.776100 0.266226
vt 0.794634 0.192866
vt 0.795567 0.269880
vt 0.272468 0.649635
vt 0.232775 0.722124
vt 0.220217 0.632266
vt 0.618549 0.860979
vt 0.535457 0.784070
vt 0.600005 0.768384
vt 0.832132 0.767049
vt 0.808279 0.608687
vt 0.776295 0.188782
vt 0.790786 0.110403
vt 0.390078 0.665763
vt 0.353346 0.656115
vt 0.400225 0.197564
vt 0.490918 0.111446
vt 0.435561 0.301795
vt 0.229727 0.547686
vt 0.271631 0.458528
vt 0.272797 0.559038
vt 0.391727 0.481645
vt 0.455248 0.565268
vt 0.435008 0.580831
vt 0.776096 0.352466
vt 0.800697 0.357822
vt 0.770825 0.421319
vt 0.786039 0.441998
vt 0.296474 0.050856
vt 0.303537 0.023263
vt 0.758712 0.469285
vt 0.335222 0.820736
vt 0.362070 0.911404
vt 0.300945 0.913759
vt 0.359449 0.106329
vt 0.659755 0.881940
vt 0.579302 0.900485
vt 0.863635 0.859263
vt 0.775850 0.104142
vt 0.769582 0.023579
vt 0.382167 0.399264
vt 0.347867 0.481245
vt 0.359033 0.405428
vt 0.401742 0.862232
vt 0.424033 0.814768
vt 0.426311 0.861883
vt 0.402685 0.769141
vt 0.397733 0.814994
vt 0.091472 0.659909
vt 0.202979 0.676892
vt 0.195611 0.778045
vt 0.100137 0.720451
vt 0.202979 0.880116
vt 0.477873 0.050942
vt 0.446063 0.748200
vt 0.397733 0.690640
vt 0.446062 0.656115
vt 0.357170 0.547338
vt 0.366127 0.547297
vt 0.253958 0.003176
vt 0.372988 0.497252
vt 0.347867 0.497197
vt 0.470670 0.656115
vt 0.452685 0.720575
vt 0.453392 0.656491
vt 0.343276 0.972070
vt 0.300945 0.948050
vt 0.343276 0.920111
vt 0.832176 0.435230
vt 0.802730 0.465641
vt 0.830185 0.380034
vt 0.418867 0.428200
vt 0.455248 0.450307
vt 0.412697 0.450064
vt 0.453996 0.491130
vt 0.498435 0.575931
vt 0.518937 0.610964
vt 0.493748 0.610964
vt 0.469486 0.719823
vt 0.453005 0.754583
vt 0.458030 0.791744
vt 0.468319 0.776158
vt 0.470670 0.791178
vt 0.501578 0.553380
vt 0.515672 0.576553
vt 0.833734 0.464874
vt 0.807678 0.481691
vt 0.469806 0.753831
vt 0.391111 0.728637
vt 0.319028 0.399264
vt 0.114818 0.091365
vt 0.713382 0.470648
vt 0.334121 0.656115
vt 0.714005 0.021261
vt 0.863076 0.514933
vt 0.968687 0.165796
vt 0.116323 0.982793
vt 0.520540 0.547028
vt 0.359952 0.579590
vt 0.277466 0.600764
vt 0.335694 0.552667
vt 0.462700 0.553959
vt 0.891183 0.087754
vt 0.059549 0.409107
vt 0.272797 0.744623
vt 0.225733 0.457858
vt 0.362070 0.801833
vt 0.650901 0.957569
vt 0.382167 0.490845
vt 0.426311 0.769623
vt 0.101508 0.613352
vt 0.451151 0.010281
vt 0.428011 0.762789
vt 0.306815 0.963982
vt 0.449561 0.427589
vt 0.455679 0.776724
vt 0.514230 0.553837
vt 0.830048 0.481691
vn -0.7905 0.5853 0.1805
vn -0.8000 0.5944 0.0818
vn -0.8011 0.5958 0.0576
vn -0.7039 0.0032 -0.7103
vn -0.6803 0.0138 -0.7328
vn -0.6730 0.0170 -0.7395
vn -0.9506 0.1536 -0.2697
vn -0.9912 0.0793 -0.1058
vn -0.9983 0.0470 -0.0353
vn -0.9280 0.2496 0.2768
vn -0.9157 0.2647 0.3022
vn -0.9330 0.2429 0.2656
vn -0.1550 0.2608 0.9529
vn -0.1523 0.2626 0.9528
vn -0.1580 0.2588 0.9529
vn -0.7714 0.0111 -0.6362
vn -0.7247 0.0302 -0.6885
vn -0.7129 0.0347 -0.7004
vn -0.1040 0.9816 0.1599
vn -0.1891 0.9272 0.3232
vn -0.2396 0.8748 0.4210
vn -0.0232 0.1358 0.9905
vn 0.0002 0.0839 0.9965
vn 0.0070 0.0687 0.9976
vn -0.8402 0.0187 -0.5420
vn -0.8818 -0.0293 -0.4708
vn -0.9042 -0.0598 -0.4230
vn -0.0588 0.1026 0.9930
vn -0.0624 0.0973 0.9933
vn -0.0918 0.0534 0.9943
vn -0.8848 0.0499 -0.4633
vn -0.8613 0.0871 -0.5006
vn -0.8374 0.1207 -0.5331
vn -0.2272 -0.1343 0.9646
vn -0.4494 -0.2919 0.8443
vn -0.0681 -0.0227 0.9974
vn -0.6574 0.0064 -0.7535
vn -0.6070 0.0251 -0.7943
vn -0.5935 0.0299 -0.8043
vn 0.0483 -0.2270 0.9727
vn 0.0502 -0.2245 0.9732
vn 0.0689 -0.1992 0.9775
vn -0.0519 -0.4269 -0.9028
vn -0.1001 -0.5003 -0.8600
vn -0.0235 -0.3822 -0.9238
vn -0.0860 -0.6606 0.7458
vn -0.0367 -0.5967 0.8016
vn -0.0039 -0.5512 0.8343
vn -0.0450 -0.4040 -0.9137
vn -0.0806 -0.3250 -0.9423
vn -0.0932 -0.2963 -0.9505
vn -0.7567 -0.5246 0.3901
vn -0.6546 -0.4355 0.6180
vn -0.7834 -0.5506 0.2883
vn 0.0399 -0.5138 0.8570
vn 0.0365 -0.5117 0.8584
vn -0.0043 -0.4862 0.8738
vn -0.9371 0.2572 0.2360
vn -0.9376 0.2548 0.2365
vn -0.9505 0.1885 0.2468
vn -0.1847 0.5498 0.8146
vn -0.1807 0.5527 0.8136
vn -0.1909 0.5453 0.8162
vn -0.0628 0.0017 -0.9980
vn -0.0641 -0.0005 -0.9979
vn -0.0641 0.0008 -0.9979
vn -0.0601 0.0044 -0.9982
vn -0.0248 0.0608 -0.9978
vn -0.0379 0.0519 -0.9979
vn -0.0586 0.0380 -0.9976
vn -0.0391 -0.0398 -0.9984
vn -0.0343 -0.0437 -0.9985
vn -0.0565 -0.0259 -0.9981
vn -0.0626 -0.0016 -0.9980
vn -0.0595 -0.0042 -0.9982
vn -0.5955 -0.0671 -0.8005
vn -0.6325 -0.0904 -0.7693
vn -0.6427 -0.0970 -0.7600
vn -0.9800 0.1083 -0.1669
vn -0.8438 0.2260 -0.4868
vn -0.7879 0.2525 -0.5617
vn -0.9848 0.1552 0.0775
vn -0.9850 0.1583 0.0686
vn -0.9850 0.1597 0.0647
vn -0.9778 -0.1966 0.0720
vn -0.9779 -0.1917 0.0838
vn -0.9777 -0.1997 0.0643
vn -0.5308 -0.0491 -0.8461
vn -0.5311 -0.0457 -0.8461
vn -0.5307 -0.0504 -0.8461
vn -0.6291 0.1150 -0.7687
vn -0.6167 0.0724 -0.7839
vn -0.6315 0.1237 -0.7654
vn 0.2804 -0.2029 0.9382
vn 0.2782 -0.1186 0.9532
vn 0.2755 -0.0610 0.9594
vn 0.4244 -0.8947 -0.1396
vn 0.4302 -0.8993 -0.0788
vn 0.4232 -0.8935 -0.1505
vn -0.0324 -0.9995 0.0000
vn -0.0278 -0.3384 0.9406
vn -0.0513 -0.2831 0.9577
vn -0.0142 -0.3697 0.9290
vn -0.7071 -0.7057 -0.0450
vn -0.7007 -0.7133 -0.0134
vn -0.6977 -0.7163 0.0000
vn -0.9931 0.0348 -0.1120
vn -0.9998 0.0124 -0.0184
vn -1.0000 0.0079 0.0000
vn -0.6183 0.7859 -0.0080
vn -0.6204 0.7843 -0.0065
vn -0.6285 0.7778 -0.0005
vn -0.0410 -0.0330 -0.9986
vn -0.0534 -0.0444 -0.9976
vn -0.0079 -0.0025 -1.0000
vn -0.0784 0.0092 -0.9969
vn -0.0912 0.0005 -0.9958
vn -0.1006 -0.0058 -0.9949
vn -0.0019 -0.0895 0.9960
vn -0.0030 -0.0912 0.9958
vn -0.0045 -0.0933 0.9956
vn -0.0350 -0.0275 0.9990
vn -0.0479 -0.0393 0.9981
vn -0.0753 -0.0646 0.9951
vn 0.8284 -0.5601 0.0111
vn 0.8301 -0.5576 0.0053
vn 0.8271 -0.5618 0.0149
vn -0.9986 0.0525 0.0000
vn 0.0000 -1.0000 0.0000
vn 0.9586 -0.2847 0.0000
vn -0.0045 -0.0933 -0.9956
vn -0.0072 -0.0973 -0.9952
vn 0.0000 -0.0867 -0.9962
vn -0.9785 -0.2064 0.0000
vn 0.7905 0.5853 0.1805
vn 0.8000 0.5945 0.0818
vn 0.7889 0.5839 0.1915
vn 0.6803 0.0138 -0.7328
vn 0.7039 0.0032 -0.7103
vn 0.6730 0.0170 -0.7395
vn 0.9506 0.1536 -0.2697
vn 0.9912 0.0793 -0.1058
vn 0.9292 0.1780 -0.3240
vn 0.9157 0.2647 0.3022
vn 0.9280 0.2496 0.2768
vn 0.9330 0.2429 0.2656
vn 0.1523 0.2626 0.9528
vn 0.1550 0.2608 0.9529
vn 0.1580 0.2588 0.9529
vn 0.7247 0.0302 -0.6884
vn 0.7714 0.0111 -0.6362
vn 0.7129 0.0347 -0.7004
vn 0.1891 0.9272 0.3232
vn 0.1040 0.9816 0.1599
vn 0.2396 0.8748 0.4210
vn 0.0232 0.1358 0.9905
vn -0.0002 0.0839 0.9965
vn 0.0279 0.1463 0.9888
vn 0.8402 0.0187 -0.5420
vn 0.8818 -0.0293 -0.4708
vn 0.8150 0.0441 -0.5777
vn 0.0624 0.0973 0.9933
vn 0.0588 0.1026 0.9930
vn 0.0918 0.0534 0.9943
vn 0.8848 0.0499 -0.4633
vn 0.8613 0.0871 -0.5006
vn 0.9030 0.0171 -0.4292
vn 0.2272 -0.1343 0.9646
vn 0.4494 -0.2919 0.8443
vn 0.5673 -0.3767 0.7323
vn 0.6070 0.0251 -0.7943
vn 0.6574 0.0064 -0.7535
vn 0.5935 0.0299 -0.8043
vn -0.0502 -0.2245 0.9732
vn -0.0483 -0.2270 0.9727
vn -0.0689 -0.1992 0.9775
vn 0.0519 -0.4269 -0.9028
vn 0.1001 -0.5003 -0.8600
vn 0.1238 -0.5352 -0.8356
vn 0.0860 -0.6606 0.7458
vn 0.0367 -0.5967 0.8016
vn 0.1150 -0.6958 0.7090
vn 0.0806 -0.3250 -0.9423
vn 0.0450 -0.4040 -0.9137
vn 0.0932 -0.2963 -0.9505
vn 0.6546 -0.4355 0.6180
vn 0.7567 -0.5246 0.3901
vn 0.7834 -0.5506 0.2883
vn -0.0399 -0.5138 0.8570
vn -0.0365 -0.5117 0.8584
vn -0.0748 -0.5345 0.8419
vn 0.9371 0.2572 0.2360
vn 0.9376 0.2548 0.2364
vn 0.9063 0.3628 0.2166
vn 0.1847 0.5498 0.8146
vn 0.1807 0.5527 0.8136
vn 0.1742 0.5573 0.8118
vn 0.0641 -0.0005 -0.9979
vn 0.0628 0.0017 -0.9980
vn 0.0641 0.0008 -0.9979
vn 0.0601 0.0044 -0.9982
vn 0.0379 0.0519 -0.9979
vn 0.0248 0.0608 -0.9978
vn 0.0586 0.0380 -0.9976
vn 0.0343 -0.0437 -0.9985
vn 0.0391 -0.0398 -0.9984
vn 0.0565 -0.0259 -0.9981
vn 0.0595 -0.0042 -0.9982
vn 0.0626 -0.0016 -0.9980
vn 0.6325 -0.0904 -0.7693
vn 0.5955 -0.0671 -0.8005
vn 0.6427 -0.0970 -0.7600
vn 0.8438 0.2260 -0.4868
vn 0.9800 0.1083 -0.1669
vn 0.7879 0.2525 -0.5617
vn 0.9848 0.1552 0.0775
vn 0.9850 0.1583 0.0686
vn 0.9847 0.1538 0.0817
vn 0.9779 -0.1917 0.0838
vn 0.9778 -0.1966 0.0719
vn 0.9777 -0.1997 0.0642
vn 0.5311 -0.0457 -0.8461
vn 0.5308 -0.0491 -0.8461
vn 0.5307 -0.0504 -0.8461
vn 0.6167 0.0724 -0.7839
vn 0.6291 0.1150 -0.7687
vn 0.6315 0.1237 -0.7654
vn -0.2804 -0.2029 0.9382
vn -0.2782 -0.1186 0.9532
vn -0.2808 -0.2367 0.9301
vn -0.4302 -0.8993 -0.0788
vn -0.4244 -0.8947 -0.1396
vn -0.4232 -0.8935 -0.1505
vn 0.0324 -0.9995 0.0000
vn 0.0278 -0.3384 0.9406
vn 0.0513 -0.2831 0.9577
vn 0.0590 -0.2645 0.9626
vn 0.7071 -0.7057 -0.0450
vn 0.7007 -0.7133 -0.0134
vn 0.7081 -0.7043 -0.0506
vn 0.9931 0.0348 -0.1120
vn 0.9998 0.0124 -0.0184
vn 0.9910 0.0387 -0.1284
vn 0.6183 0.7859 -0.0080
vn 0.6204 0.7843 -0.0065
vn 0.6153 0.7882 -0.0102
vn 0.0410 -0.0330 -0.9986
vn 0.0534 -0.0444 -0.9976
vn 0.0803 -0.0693 -0.9944
vn 0.0912 0.0005 -0.9958
vn 0.0784 0.0092 -0.9969
vn 0.1006 -0.0058 -0.9949
vn 0.0030 -0.0912 0.9958
vn 0.0019 -0.0895 0.9960
vn 0.0045 -0.0933 0.9956
vn 0.0479 -0.0393 0.9981
vn 0.0350 -0.0275 0.9990
vn 0.0753 -0.0646 0.9951
vn -0.8301 -0.5576 0.0053
vn -0.8284 -0.5601 0.0111
vn -0.8271 -0.5618 0.0149
vn 0.9986 0.0525 0.0000
vn -0.9586 -0.2847 0.0000
vn 0.0045 -0.0933 -0.9956
vn 0.0072 -0.0973 -0.9952
vn 0.0105 -0.1023 -0.9947
vn 0.9785 -0.2064 0.0000
vn -0.7889 0.5839 0.1915
vn -0.7109 0.0000 -0.7033
vn -0.9292 0.1780 -0.3240
vn -0.9108 0.2705 0.3119
vn -0.1483 0.2654 0.9527
vn -0.7821 0.0065 -0.6231
vn -0.0436 0.9980 0.0448
vn -0.0279 0.1463 0.9888
vn -0.8150 0.0441 -0.5777
vn -0.0291 0.1464 0.9888
vn -0.9031 0.0171 -0.4292
vn -0.5673 -0.3767 0.7323
vn -0.6720 0.0007 -0.7405
vn 0.0278 -0.2543 0.9667
vn -0.1238 -0.5352 -0.8356
vn -0.1150 -0.6958 0.7090
vn -0.0231 -0.4505 -0.8925
vn -0.5873 -0.3803 0.7145
vn 0.0748 -0.5345 0.8419
vn -0.9063 0.3628 0.2166
vn -0.1742 0.5573 0.8118
vn -0.0576 0.0062 -0.9983
vn -0.0027 0.0756 -0.9971
vn -0.0163 -0.0581 -0.9982
vn -0.0566 -0.0063 -0.9984
vn -0.5831 -0.0594 -0.8102
vn -0.9926 0.0799 -0.0920
vn -0.9847 0.1538 0.0817
vn -0.9778 -0.1883 0.0922
vn -0.5313 -0.0436 -0.8461
vn -0.6128 0.0600 -0.7880
vn 0.2808 -0.2367 0.9301
vn 0.4319 -0.9001 -0.0569
vn -0.0590 -0.2645 0.9626
vn -0.7081 -0.7043 -0.0506
vn -0.9910 0.0387 -0.1284
vn -0.6153 0.7882 -0.0102
vn -0.0803 -0.0692 -0.9944
vn -0.0667 0.0171 -0.9976
vn 0.0000 -0.0867 0.9962
vn -0.0019 0.0030 1.0000
vn 0.8317 -0.5552 0.0000
vn -0.0105 -0.1023 -0.9947
vn 0.8011 0.5958 0.0576
vn 0.7109 0.0000 -0.7033
vn 0.9983 0.0470 -0.0353
vn 0.9108 0.2705 0.3119
vn 0.1483 0.2654 0.9527
vn 0.7821 0.0065 -0.6231
vn 0.0436 0.9980 0.0448
vn -0.0070 0.0687 0.9976
vn 0.9042 -0.0598 -0.4230
vn 0.0291 0.1464 0.9888
vn 0.8374 0.1207 -0.5331
vn 0.0681 -0.0227 0.9974
vn 0.6720 0.0007 -0.7405
vn -0.0278 -0.2543 0.9667
vn 0.0235 -0.3822 -0.9238
vn 0.0039 -0.5512 0.8343
vn 0.0231 -0.4505 -0.8925
vn 0.5873 -0.3803 0.7145
vn 0.0043 -0.4862 0.8738
vn 0.9505 0.1885 0.2468
vn 0.1909 0.5453 0.8162
vn 0.0576 0.0062 -0.9983
vn 0.0027 0.0756 -0.9971
vn 0.0163 -0.0581 -0.9982
vn 0.0566 -0.0063 -0.9984
vn 0.5831 -0.0594 -0.8102
vn 0.9926 0.0799 -0.0920
vn 0.9850 0.1597 0.0647
vn 0.9778 -0.1883 0.0922
vn 0.5313 -0.0436 -0.8461
vn 0.6128 0.0600 -0.7880
vn -0.2755 -0.0610 0.9594
vn -0.4319 -0.9001 -0.0569
vn 0.0142 -0.3697 0.9290
vn 0.6977 -0.7163 0.0000
vn 1.0000 0.0079 0.0000
vn 0.6285 0.7778 -0.0005
vn 0.0079 -0.0025 -1.0000
vn 0.0667 0.0171 -0.9976
vn 0.0019 0.0030 1.0000
vn -0.8317 -0.5552 0.0000
s 1
f 1/1/1 3/2/2 4/3/3
f 6/4/4 8/5/5 5/6/6
f 6/4/7 9/7/8 10/8/9
f 1/9/10 9/10/11 2/11/12
f 12/12/13 11/13/14 1/14/15
f 10/8/16 7/15/17 6/4/18
f 16/16/19 18/17/20 15/18/21
f 19/19/22 4/20/23 20/21/24
f 21/22/25 22/23/26 23/24/27
f 1/25/28 24/26/29 12/27/30
f 2/28/31 5/6/32 21/22/33
f 25/29/34 26/30/35 27/31/36
f 5/32/37 28/33/38 22/34/39
f 19/19/40 30/35/41 24/26/42
f 31/36/43 33/37/44 34/38/45
f 35/39/46 36/40/47 37/41/48
f 31/36/49 39/42/50 32/43/51
f 23/44/52 35/45/53 29/46/54
f 30/35/55 35/39/56 37/41/57
f 10/47/58 11/48/59 15/49/60
f 15/50/61 13/51/62 16/52/63
f 40/53/64 8/54/65 7/55/66
f 14/56/67 40/53/64 7/55/66
f 18/57/68 42/58/69 14/56/70
f 43/59/71 33/37/72 28/33/73
f 41/60/74 28/33/75 8/54/65
f 22/34/76 33/37/77 32/43/78
f 15/61/79 14/62/80 10/8/81
f 4/3/82 44/63/83 20/64/84
f 44/63/85 46/65/86 20/64/87
f 23/66/88 44/67/89 21/68/90
f 21/68/91 3/69/92 2/70/93
f 29/71/94 20/21/95 46/72/96
f 29/73/97 45/74/98 23/75/99
f 39/76/100 48/77/100 47/78/100
f 36/40/101 47/79/102 48/80/103
f 25/81/104 39/82/105 47/83/106
f 26/84/107 50/85/108 27/86/109
f 23/24/110 49/87/111 26/84/112
f 50/88/113 51/89/114 52/90/115
f 32/43/116 49/91/117 22/34/118
f 54/92/119 56/93/120 53/94/121
f 27/31/122 53/94/123 25/29/124
f 25/95/125 51/96/126 32/97/127
f 27/86/128 52/98/128 54/99/128
f 56/100/129 58/101/129 57/102/129
f 53/103/130 57/102/130 51/96/130
f 52/90/131 57/104/132 58/105/133
f 52/98/134 55/106/134 54/99/134
f 59/107/135 61/108/136 62/109/137
f 64/110/138 66/111/139 63/112/140
f 66/113/141 68/114/142 62/115/143
f 68/116/144 59/117/145 62/118/146
f 69/119/147 12/12/148 59/120/149
f 65/121/150 67/122/151 66/111/152
f 72/123/153 16/16/154 71/124/155
f 73/125/156 60/126/157 59/127/158
f 75/128/159 77/129/160 63/130/161
f 24/26/162 59/127/163 12/27/164
f 62/115/165 63/130/166 66/113/167
f 78/131/168 80/132/169 76/133/170
f 81/134/171 63/112/172 77/135/173
f 30/35/174 73/125/175 24/26/176
f 31/36/177 83/136/178 84/137/179
f 85/138/180 36/40/181 78/139/182
f 86/140/183 31/36/184 84/137/185
f 85/141/186 76/142/187 82/143/188
f 30/35/189 85/138/190 82/144/191
f 67/145/192 69/146/193 68/116/194
f 71/147/195 13/51/196 69/119/197
f 64/110/198 40/53/199 65/121/200
f 40/53/199 70/148/201 65/121/200
f 42/58/202 72/149/203 70/148/204
f 83/136/205 43/59/206 81/134/207
f 81/134/208 41/60/209 64/110/198
f 83/136/210 77/135/211 84/137/212
f 70/150/213 71/151/214 67/152/215
f 60/153/216 87/154/217 61/155/218
f 88/156/219 87/154/220 74/157/221
f 87/158/222 76/159/223 75/160/224
f 61/161/225 75/160/226 62/162/227
f 82/144/228 74/163/229 73/125/230
f 89/164/231 82/165/232 76/166/233
f 48/77/234 86/167/234 90/168/234
f 36/40/235 90/169/236 78/139/237
f 78/170/238 86/167/239 84/171/240
f 80/172/241 91/173/242 92/174/243
f 76/175/244 92/176/245 77/177/246
f 91/178/247 94/179/248 84/137/249
f 92/180/250 84/137/251 77/135/252
f 96/181/253 98/182/254 95/183/255
f 95/183/256 79/184/257 78/131/258
f 94/185/259 78/186/260 84/187/261
f 79/188/262 93/189/262 91/173/262
f 99/190/129 97/191/129 96/192/129
f 99/193/263 95/194/263 94/185/263
f 93/195/264 99/196/265 94/179/266
f 97/191/267 93/189/267 98/197/267
f 1/1/1 2/28/268 3/2/2
f 6/4/4 7/15/269 8/5/5
f 6/4/7 2/28/270 9/7/8
f 1/9/10 11/48/271 9/10/11
f 12/12/13 13/51/272 11/13/14
f 10/8/16 14/62/273 7/15/17
f 16/16/19 17/198/274 18/17/20
f 19/19/22 1/25/275 4/20/23
f 21/22/25 5/6/276 22/23/26
f 1/25/28 19/19/277 24/26/29
f 2/28/31 6/4/278 5/6/32
f 25/29/34 23/199/279 26/30/35
f 5/32/37 8/54/280 28/33/38
f 19/19/40 29/71/281 30/35/41
f 31/36/43 32/43/282 33/37/44
f 35/39/46 25/200/283 36/40/47
f 31/36/49 38/201/284 39/42/50
f 23/44/52 25/202/285 35/45/53
f 30/35/55 29/71/286 35/39/56
f 10/47/58 9/10/287 11/48/59
f 15/50/61 11/13/288 13/51/62
f 40/53/64 41/60/74 8/54/65
f 14/56/67 42/58/289 40/53/64
f 18/57/68 17/203/290 42/58/69
f 43/59/71 34/38/291 33/37/72
f 41/60/74 43/59/292 28/33/75
f 22/34/76 28/33/293 33/37/77
f 15/61/79 18/204/294 14/62/80
f 4/3/82 3/2/295 44/63/83
f 44/63/85 45/205/296 46/65/86
f 23/66/88 45/206/297 44/67/89
f 21/68/91 44/67/298 3/69/92
f 29/71/94 19/19/299 20/21/95
f 29/73/97 46/207/300 45/74/98
f 39/76/100 38/208/100 48/77/100
f 36/40/101 25/200/301 47/79/102
f 25/81/104 32/209/302 39/82/105
f 26/84/107 49/87/303 50/85/108
f 23/24/110 22/23/304 49/87/111
f 50/88/113 32/43/305 51/89/114
f 32/43/116 50/88/306 49/91/117
f 54/92/119 55/210/307 56/93/120
f 27/31/122 54/92/308 53/94/123
f 25/95/125 53/103/309 51/96/126
f 27/86/128 50/85/128 52/98/128
f 56/100/129 55/211/129 58/101/129
f 53/103/130 56/100/130 57/102/130
f 52/90/131 51/89/310 57/104/132
f 52/98/134 58/212/134 55/106/134
f 59/107/135 60/213/311 61/108/136
f 64/110/138 65/121/312 66/111/139
f 66/113/141 67/214/313 68/114/142
f 68/116/144 69/146/314 59/117/145
f 69/119/147 13/51/315 12/12/148
f 65/121/150 70/148/316 67/122/151
f 72/123/153 17/198/317 16/16/154
f 73/125/156 74/163/318 60/126/157
f 75/128/159 76/215/319 77/129/160
f 24/26/162 73/125/320 59/127/163
f 62/115/165 75/128/321 63/130/166
f 78/131/168 79/184/322 80/132/169
f 81/134/171 64/110/323 63/112/172
f 30/35/174 82/144/324 73/125/175
f 31/36/177 34/38/325 83/136/178
f 85/138/180 37/41/326 36/40/181
f 86/140/183 38/201/327 31/36/184
f 85/141/186 78/216/328 76/142/187
f 30/35/189 37/41/329 85/138/190
f 67/145/192 71/217/330 69/146/193
f 71/147/195 16/52/331 13/51/196
f 64/110/198 41/60/209 40/53/199
f 40/53/199 42/58/332 70/148/201
f 42/58/202 17/203/333 72/149/203
f 83/136/205 34/38/334 43/59/206
f 81/134/208 43/59/335 41/60/209
f 83/136/210 81/134/336 77/135/211
f 70/150/213 72/218/337 71/151/214
f 60/153/216 74/157/338 87/154/217
f 88/156/219 89/219/339 87/154/220
f 87/158/222 89/220/340 76/159/223
f 61/161/225 87/158/341 75/160/226
f 82/144/228 88/221/342 74/163/229
f 89/164/231 88/222/343 82/165/232
f 48/77/234 38/208/234 86/167/234
f 36/40/235 48/80/344 90/169/236
f 78/170/238 90/168/345 86/167/239
f 80/172/241 79/188/346 91/173/242
f 76/175/244 80/223/347 92/176/245
f 91/178/247 93/195/348 94/179/248
f 92/180/250 91/178/349 84/137/251
f 96/181/253 97/224/307 98/182/254
f 95/183/256 98/182/350 79/184/257
f 94/185/259 95/194/351 78/186/260
f 79/188/262 98/197/262 93/189/262
f 99/190/129 100/225/129 97/191/129
f 99/193/263 96/226/263 95/194/263
f 93/195/264 100/227/133 99/196/265
f 97/191/267 100/225/267 93/189/267
