# Blender v2.79 (sub 0) OBJ File: 'Orbit.obj'
# www.blender.org
mtllib Orbit.mtl
o Cube.001
v -0.533491 -0.658420 0.636909
v -0.621759 -0.683528 0.349821
v -1.092887 -1.409051 0.621250
v -1.083360 -1.406963 0.732156
v -0.509002 -1.005824 0.099709
v -0.501864 -0.503803 0.104728
v -0.390624 -0.487691 -0.007711
v -0.390624 -0.992048 -0.007711
v -0.489690 -0.107837 0.287341
v -0.476612 0.033324 0.105658
v -0.375944 0.070125 0.465207
v 0.000000 -0.478292 0.676476
v 0.000000 0.124390 0.508600
v -0.386518 0.063585 -0.007121
v -0.366618 0.509645 0.165472
v 0.000000 0.596833 0.192954
v 0.000000 0.605009 0.010758
v -0.345806 0.589898 0.010543
v -0.555411 -1.171746 0.712252
v -1.128652 -1.694527 0.752267
v -0.664098 -1.171280 0.305900
v -0.542208 -1.578251 0.102901
v -0.638141 -1.650365 0.318176
v 0.000000 -1.014137 0.705239
v -0.457031 -2.130637 0.211413
v -0.736107 -1.729609 0.201512
v -0.738898 -2.081057 0.193311
v -0.391934 -1.553626 -0.007060
v -0.540319 -1.649179 0.586211
v 0.000000 -1.561986 0.593588
v 0.000000 -2.195926 0.074189
v -0.452488 -2.126991 0.097054
v -0.359959 -2.001113 0.002736
v -0.000000 -2.010346 -0.002594
v -0.375803 -2.011312 0.341700
v 0.000000 -2.195925 0.221490
v 0.000000 -2.010346 0.344097
v 0.000000 -2.310322 0.131940
v -0.281927 -2.301193 0.134632
v -0.000000 -0.483016 -0.032800
v -0.000000 -0.998227 -0.032800
v -0.000000 0.076151 -0.029337
v -0.000000 -1.551788 -0.029284
v -1.136465 -1.694527 0.633386
v -1.094942 -1.917335 0.618787
v -1.084554 -1.919087 0.725325
v -0.281927 -2.301193 0.175283
v 0.000000 -2.310322 0.175967
v -0.725509 -1.721099 0.122271
v -0.738898 -2.081057 0.116980
v -0.556206 -2.279197 0.116028
v -0.749038 -2.274061 0.117543
v -0.556206 -2.279196 0.194263
v -0.749038 -2.274061 0.193878
v -0.726125 -2.382704 0.184424
v -0.586951 -2.382704 0.184424
v -0.586951 -2.382704 0.126997
v -0.726125 -2.382704 0.126997
v 0.533491 -0.658420 0.636908
v 1.083361 -1.406963 0.732156
v 1.092887 -1.409051 0.621250
v 0.621759 -0.683528 0.349820
v 0.509002 -1.005824 0.099708
v 0.390624 -0.992048 -0.007712
v 0.390624 -0.487691 -0.007712
v 0.501864 -0.503803 0.104728
v 0.476612 0.033324 0.105658
v 0.489690 -0.107837 0.287340
v 0.375945 0.070125 0.465206
v 0.386518 0.063585 -0.007121
v 0.366618 0.509645 0.165471
v 0.345806 0.589898 0.010543
v 0.555411 -1.171746 0.712252
v 1.128653 -1.694527 0.752267
v 0.664098 -1.171280 0.305900
v 0.638141 -1.650365 0.318176
v 0.542208 -1.578251 0.102901
v 0.457031 -2.130637 0.211412
v 0.738898 -2.081057 0.193310
v 0.736107 -1.729609 0.201511
v 0.391934 -1.553626 -0.007061
v 0.540319 -1.649179 0.586210
v 0.359959 -2.001113 0.002736
v 0.452488 -2.126991 0.097053
v 0.375804 -2.011312 0.341700
v 0.281927 -2.301193 0.134632
v 1.136465 -1.694527 0.633385
v 1.084554 -1.919087 0.725324
v 1.094942 -1.917335 0.618786
v 0.281927 -2.301193 0.175282
v 0.738898 -2.081057 0.116979
v 0.725509 -1.721099 0.122271
v 0.749038 -2.274061 0.117543
v 0.556206 -2.279197 0.116028
v 0.556206 -2.279196 0.194262
v 0.586951 -2.382704 0.184424
v 0.726125 -2.382704 0.184423
v 0.749038 -2.274061 0.193877
v 0.586951 -2.382704 0.126997
v 0.726125 -2.382704 0.126997
vt 0.964226 0.337857
vt 0.920626 0.335332
vt 0.967803 0.240327
vt 0.984847 0.240741
vt 0.881974 0.284771
vt 0.881462 0.358276
vt 0.863240 0.357799
vt 0.864481 0.283804
vt 0.908586 0.416625
vt 0.880097 0.436510
vt 0.875182 0.659888
vt 0.914076 0.636562
vt 0.948912 0.742036
vt 0.912382 0.736695
vt 0.587987 0.688182
vt 0.712318 0.683406
vt 0.758881 0.805102
vt 0.676895 0.823068
vt 0.861945 0.438586
vt 0.354441 0.785748
vt 0.351163 0.731498
vt 0.391111 0.728637
vt 0.391111 0.788038
vt 0.170882 0.280326
vt 0.215269 0.381290
vt 0.043571 0.272877
vt 0.011823 0.219122
vt 0.915360 0.264602
vt 0.884121 0.201550
vt 0.918241 0.193765
vt 0.339600 0.376513
vt 0.297841 0.270194
vt 0.277466 0.498256
vt 0.319028 0.399264
vt 0.341245 0.414997
vt 0.340049 0.489141
vt 0.626391 0.357822
vt 0.631936 0.269880
vt 0.650524 0.266226
vt 0.650100 0.352467
vt 0.136338 0.186841
vt 0.254725 0.163697
vt 0.713187 0.452256
vt 0.640576 0.441998
vt 0.655107 0.421319
vt 0.712941 0.422660
vt 0.141295 0.106854
vt 0.114818 0.091365
vt 0.204109 0.044257
vt 0.218967 0.079008
vt 0.713382 0.470648
vt 0.668080 0.469285
vt 0.344540 0.786102
vt 0.294283 0.758123
vt 0.334121 0.656115
vt 0.344540 0.689336
vt 0.899559 0.770419
vt 0.945286 0.824171
vt 0.712249 0.913893
vt 0.794833 0.903375
vt 0.650719 0.188782
vt 0.713405 0.187705
vt 0.713206 0.266816
vt 0.651594 0.104142
vt 0.713635 0.101894
vt 0.658414 0.023579
vt 0.714005 0.021261
vt 0.713007 0.351866
vt 0.887343 0.504080
vt 0.863076 0.514933
vt 0.970701 0.199465
vt 0.988994 0.199634
vt 0.968687 0.165796
vt 0.985061 0.165614
vt 0.076016 0.798908
vt 0.148153 0.870176
vt 0.116323 0.982793
vt 0.078308 0.954225
vt 0.014814 0.716781
vt 0.044904 0.902969
vt 0.003311 0.171889
vt 0.461871 0.427589
vt 0.520540 0.433762
vt 0.520540 0.547028
vt 0.498003 0.541145
vt 0.372988 0.608476
vt 0.364031 0.608516
vt 0.359952 0.579590
vt 0.369653 0.579545
vt 0.137543 0.045186
vt 0.195040 0.022367
vt 0.302744 0.600764
vt 0.277466 0.600764
vt 0.285299 0.559019
vt 0.294258 0.559238
vt 0.901153 0.184013
vt 0.888821 0.184791
vt 0.888989 0.132269
vt 0.900772 0.132491
vt 0.594640 0.435230
vt 0.623925 0.465641
vt 0.592938 0.464874
vt 0.596953 0.380034
vt 0.298692 0.529970
vt 0.341245 0.529975
vt 0.335694 0.552667
vt 0.305004 0.551877
vt 0.487126 0.629117
vt 0.461871 0.629116
vt 0.463645 0.591220
vt 0.480863 0.590431
vt 0.889626 0.104184
vt 0.901409 0.104406
vt 0.477708 0.568397
vt 0.465069 0.568976
vt 0.462700 0.553959
vt 0.475339 0.553380
vt 0.618989 0.481691
vt 0.596618 0.481691
vt 0.891183 0.087754
vt 0.900047 0.087922
vt 0.003839 0.588457
vt 0.059549 0.409107
vt 0.082389 0.417454
vt 0.069561 0.598109
vt 0.795567 0.269880
vt 0.776100 0.266226
vt 0.776295 0.188782
vt 0.794634 0.192866
vt 0.272468 0.649635
vt 0.272797 0.744623
vt 0.232775 0.722124
vt 0.220217 0.632266
vt 0.600005 0.768384
vt 0.618549 0.860979
vt 0.579302 0.900485
vt 0.535457 0.784070
vt 0.808279 0.608687
vt 0.832132 0.767049
vt 0.775850 0.104142
vt 0.790786 0.110403
vt 0.353346 0.656115
vt 0.390078 0.665763
vt 0.400225 0.197564
vt 0.477873 0.050942
vt 0.490918 0.111446
vt 0.435561 0.301795
vt 0.229727 0.547686
vt 0.225733 0.457858
vt 0.271631 0.458528
vt 0.272797 0.559038
vt 0.391727 0.481645
vt 0.453996 0.491130
vt 0.455248 0.565268
vt 0.435008 0.580831
vt 0.800697 0.357822
vt 0.776096 0.352466
vt 0.359449 0.106329
vt 0.770825 0.421319
vt 0.786039 0.441998
vt 0.296474 0.050856
vt 0.303537 0.023263
vt 0.758712 0.469285
vt 0.300945 0.913759
vt 0.335222 0.820736
vt 0.362070 0.801833
vt 0.362070 0.911404
vt 0.659755 0.881940
vt 0.650901 0.957569
vt 0.863635 0.859263
vt 0.769582 0.023579
vt 0.359033 0.405428
vt 0.382167 0.399264
vt 0.382167 0.490845
vt 0.347867 0.481245
vt 0.401742 0.862232
vt 0.397733 0.814994
vt 0.424033 0.814768
vt 0.426311 0.861883
vt 0.402685 0.769141
vt 0.426311 0.769623
vt 0.195611 0.778045
vt 0.091472 0.659909
vt 0.101508 0.613352
vt 0.202979 0.676892
vt 0.202979 0.880116
vt 0.100137 0.720451
vt 0.451151 0.010281
vt 0.446062 0.656115
vt 0.446063 0.748200
vt 0.428011 0.762789
vt 0.397733 0.690640
vt 0.366127 0.547297
vt 0.357170 0.547338
vt 0.253958 0.003176
vt 0.372988 0.497252
vt 0.347867 0.497197
vt 0.470670 0.656115
vt 0.469486 0.719823
vt 0.452685 0.720575
vt 0.453392 0.656491
vt 0.343276 0.972070
vt 0.306815 0.963982
vt 0.300945 0.948050
vt 0.343276 0.920111
vt 0.832176 0.435230
vt 0.833734 0.464874
vt 0.802730 0.465641
vt 0.830185 0.380034
vt 0.412697 0.450064
vt 0.418867 0.428200
vt 0.449561 0.427589
vt 0.455248 0.450307
vt 0.493748 0.610964
vt 0.498435 0.575931
vt 0.515672 0.576553
vt 0.518937 0.610964
vt 0.469806 0.753831
vt 0.453005 0.754583
vt 0.458030 0.791744
vt 0.455679 0.776724
vt 0.468319 0.776158
vt 0.470670 0.791178
vt 0.501578 0.553380
vt 0.514230 0.553837
vt 0.830048 0.481691
vt 0.807678 0.481691
vn -0.7937 0.5883 0.1548
vn -0.6921 0.0085 -0.7217
vn -0.9701 0.1256 -0.2078
vn -0.9224 0.2567 0.2887
vn -0.1543 0.2613 0.9528
vn -0.7475 0.0211 -0.6639
vn -0.1471 0.9589 0.2425
vn -0.0159 0.1196 0.9927
vn -0.8588 -0.0016 -0.5124
vn -0.0607 0.0998 0.9932
vn -0.8741 0.0675 -0.4810
vn -0.3143 -0.1958 0.9289
vn -0.6304 0.0166 -0.7761
vn 0.0499 -0.2249 0.9731
vn -0.0752 -0.4629 -0.8832
vn -0.0601 -0.6277 0.7761
vn -0.0697 -0.3498 -0.9342
vn -0.7257 -0.4964 0.4764
vn 0.0403 -0.5140 0.8568
vn -0.9420 0.2350 0.2397
vn -0.1827 0.5512 0.8141
vn -0.0625 0.0019 -0.9980
vn -0.0622 -0.0018 -0.9981
vn -0.0608 0.0039 -0.9981
vn -0.0321 0.0559 -0.9979
vn -0.0370 -0.0415 -0.9985
vn -0.0604 -0.0037 -0.9982
vn -0.6131 -0.0780 -0.7862
vn -0.9334 0.1649 -0.3186
vn -0.9849 0.1568 0.0729
vn -0.9779 -0.1943 0.0774
vn -0.5309 -0.0482 -0.8461
vn -0.6253 0.1013 -0.7738
vn 0.2801 -0.1818 0.9426
vn 0.4260 -0.8961 -0.1244
vn -0.0324 -0.9995 -0.0000
vn -0.0441 -0.3001 0.9529
vn -0.7056 -0.7076 -0.0373
vn -0.9975 0.0240 -0.0666
vn -0.6179 0.7862 -0.0083
vn -0.0489 -0.0403 -0.9980
vn -0.0844 0.0051 -0.9964
vn -0.0026 -0.0905 0.9959
vn -0.0429 -0.0347 0.9985
vn 0.8290 -0.5592 0.0090
vn -0.9986 0.0525 0.0000
vn 0.0000 -1.0000 0.0000
vn 0.9586 -0.2847 0.0000
vn -0.0060 -0.0956 -0.9954
vn -0.9785 -0.2064 0.0000
vn 0.7937 0.5883 0.1548
vn 0.6921 0.0085 -0.7217
vn 0.9701 0.1256 -0.2078
vn 0.9224 0.2567 0.2887
vn 0.1543 0.2613 0.9528
vn 0.7475 0.0211 -0.6639
vn 0.1471 0.9589 0.2425
vn 0.0159 0.1196 0.9927
vn 0.8588 -0.0016 -0.5124
vn 0.0607 0.0998 0.9932
vn 0.8741 0.0675 -0.4810
vn 0.3143 -0.1958 0.9289
vn 0.6304 0.0166 -0.7761
vn -0.0499 -0.2249 0.9731
vn 0.0752 -0.4629 -0.8832
vn 0.0601 -0.6277 0.7761
vn 0.0697 -0.3498 -0.9342
vn 0.7257 -0.4964 0.4764
vn -0.0403 -0.5140 0.8568
vn 0.9420 0.2350 0.2397
vn 0.1827 0.5512 0.8141
vn 0.0625 0.0019 -0.9980
vn 0.0622 -0.0018 -0.9981
vn 0.0608 0.0039 -0.9981
vn 0.0321 0.0559 -0.9979
vn 0.0370 -0.0415 -0.9985
vn 0.0604 -0.0037 -0.9982
vn 0.6131 -0.0780 -0.7862
vn 0.9334 0.1649 -0.3186
vn 0.9849 0.1568 0.0729
vn 0.9779 -0.1943 0.0774
vn 0.5309 -0.0482 -0.8461
vn 0.6253 0.1013 -0.7738
vn -0.2801 -0.1818 0.9426
vn -0.4260 -0.8961 -0.1244
vn 0.0324 -0.9995 0.0000
vn 0.0441 -0.3001 0.9529
vn 0.7056 -0.7076 -0.0373
vn 0.9975 0.0240 -0.0666
vn 0.6179 0.7862 -0.0083
vn 0.0489 -0.0403 -0.9980
vn 0.0844 0.0051 -0.9964
vn 0.0026 -0.0905 0.9959
vn 0.0429 -0.0347 0.9985
vn -0.8290 -0.5592 0.0090
vn 0.9986 0.0525 0.0000
vn -0.9586 -0.2847 0.0000
vn 0.0060 -0.0956 -0.9954
vn 0.9785 -0.2064 0.0000
usemtl Material.001
s 1
f 1/1/1 2/2/1 3/3/1 4/4/1
f 5/5/2 6/6/2 7/7/2 8/8/2
f 6/6/3 2/2/3 9/9/3 10/10/3
f 2/11/4 1/12/4 11/13/4 9/14/4
f 1/15/5 12/16/5 13/17/5 11/18/5
f 6/6/6 10/10/6 14/19/6 7/7/6
f 15/20/7 16/21/7 17/22/7 18/23/7
f 19/24/8 1/25/8 4/26/8 20/27/8
f 21/28/9 5/5/9 22/29/9 23/30/9
f 12/31/10 1/25/10 19/24/10 24/32/10
f 2/2/11 6/6/11 5/5/11 21/28/11
f 25/33/12 23/34/12 26/35/12 27/36/12
f 22/37/13 5/38/13 8/39/13 28/40/13
f 24/32/14 19/24/14 29/41/14 30/42/14
f 31/43/15 32/44/15 33/45/15 34/46/15
f 35/47/16 25/48/16 36/49/16 37/50/16
f 32/44/17 31/43/17 38/51/17 39/52/17
f 29/53/18 23/54/18 25/55/18 35/56/18
f 30/42/19 29/41/19 35/47/19 37/50/19
f 10/57/20 9/14/20 11/13/20 15/58/20
f 15/59/21 11/18/21 13/17/21 16/60/21
f 7/61/22 40/62/22 41/63/23 8/39/23
f 7/61/22 14/64/24 42/65/24 40/62/22
f 14/64/25 18/66/25 17/67/25 42/65/25
f 28/40/26 43/68/26 34/46/26 33/45/26
f 8/39/23 41/63/23 43/68/27 28/40/27
f 32/44/28 22/37/28 28/40/28 33/45/28
f 10/10/29 15/69/29 18/70/29 14/19/29
f 4/4/30 3/3/30 44/71/30 20/72/30
f 20/72/31 44/71/31 45/73/31 46/74/31
f 21/75/32 23/76/32 45/77/32 44/78/32
f 2/79/33 21/75/33 44/78/33 3/80/33
f 29/41/34 19/24/34 20/27/34 46/81/34
f 23/82/35 29/83/35 46/84/35 45/85/35
f 47/86/36 39/87/36 38/88/36 48/89/36
f 36/49/37 25/48/37 47/90/37 48/91/37
f 25/92/38 32/93/38 39/94/38 47/95/38
f 26/96/39 49/97/39 50/98/39 27/99/39
f 23/30/40 22/29/40 49/97/40 26/96/40
f 50/100/41 32/44/41 51/101/41 52/102/41
f 22/37/42 32/44/42 50/100/42 49/103/42
f 53/104/43 54/105/43 55/106/43 56/107/43
f 25/33/44 27/36/44 54/105/44 53/104/44
f 32/108/45 25/109/45 53/110/45 51/111/45
f 27/99/46 50/98/46 52/112/46 54/113/46
f 57/114/47 56/115/47 55/116/47 58/117/47
f 51/111/48 53/110/48 56/115/48 57/114/48
f 52/102/49 51/101/49 57/118/49 58/119/49
f 54/113/50 52/112/50 58/120/50 55/121/50
f 59/122/51 60/123/51 61/124/51 62/125/51
f 63/126/52 64/127/52 65/128/52 66/129/52
f 66/130/53 67/131/53 68/132/53 62/133/53
f 62/134/54 68/135/54 69/136/54 59/137/54
f 59/138/55 69/139/55 13/17/55 12/16/55
f 66/129/56 65/128/56 70/140/56 67/141/56
f 71/142/57 72/143/57 17/22/57 16/21/57
f 73/144/58 74/145/58 60/146/58 59/147/58
f 75/148/59 76/149/59 77/150/59 63/151/59
f 12/31/60 24/32/60 73/144/60 59/147/60
f 62/133/61 75/148/61 63/151/61 66/130/61
f 78/152/62 79/153/62 80/154/62 76/155/62
f 77/156/63 81/157/63 64/127/63 63/126/63
f 24/32/64 30/42/64 82/158/64 73/144/64
f 31/43/65 34/46/65 83/159/65 84/160/65
f 85/161/66 37/50/66 36/49/66 78/162/66
f 84/160/67 86/163/67 38/51/67 31/43/67
f 82/164/68 85/165/68 78/166/68 76/167/68
f 30/42/69 37/50/69 85/161/69 82/158/69
f 67/168/70 71/169/70 69/136/70 68/135/70
f 71/170/71 16/60/71 13/17/71 69/139/71
f 65/128/72 64/127/73 41/63/73 40/62/72
f 65/128/72 40/62/72 42/65/74 70/140/74
f 70/140/75 42/65/75 17/67/75 72/171/75
f 81/157/76 83/159/76 34/46/76 43/68/76
f 64/127/73 81/157/77 43/68/77 41/63/73
f 84/160/78 83/159/78 81/157/78 77/156/78
f 67/172/79 70/173/79 72/174/79 71/175/79
f 60/176/80 74/177/80 87/178/80 61/179/80
f 74/177/81 88/180/81 89/181/81 87/178/81
f 75/182/82 87/183/82 89/184/82 76/185/82
f 62/186/83 61/187/83 87/183/83 75/182/83
f 82/158/84 88/188/84 74/145/84 73/144/84
f 76/189/85 89/190/85 88/191/85 82/192/85
f 90/193/86 48/89/86 38/88/86 86/194/86
f 36/49/87 48/91/87 90/195/87 78/162/87
f 78/196/88 90/193/88 86/194/88 84/197/88
f 80/198/89 79/199/89 91/200/89 92/201/89
f 76/202/90 80/203/90 92/204/90 77/205/90
f 91/206/91 93/207/91 94/208/91 84/160/91
f 77/156/92 92/209/92 91/206/92 84/160/92
f 95/210/93 96/211/93 97/212/93 98/213/93
f 78/152/94 95/210/94 98/213/94 79/153/94
f 84/214/95 94/215/95 95/216/95 78/217/95
f 79/199/96 98/218/96 93/219/96 91/200/96
f 99/220/47 100/221/47 97/222/47 96/223/47
f 94/215/97 99/224/97 96/225/97 95/216/97
f 93/207/98 100/226/98 99/227/98 94/208/98
f 98/218/99 97/222/99 100/221/99 93/219/99
