# Blender v2.79 (sub 0) OBJ File: ''
# www.blender.org
mtllib shield.mtl
o Circle.007_Circle.014
v -0.866025 0.444939 0.584515
v -0.866025 -0.555061 0.584515
v 0.000000 -1.055061 0.584515
v 0.866026 -0.555061 0.584515
v 0.866026 0.444939 0.584515
v 0.000000 0.944939 0.584515
v -1.719017 1.950539 -0.936888
v -1.719017 0.950539 0.057343
v -0.852991 0.450539 0.584515
v 0.013034 0.950539 0.584515
v 0.013034 1.950539 0.057343
v -0.852991 2.450539 -0.936888
v -1.719017 -1.065832 0.057342
v -1.719017 -2.065832 -0.936888
v -0.852991 -2.565832 -0.936888
v 0.013034 -2.065831 0.057342
v 0.013034 -1.065832 0.584515
v -0.852991 -0.565832 0.584515
v -2.579329 0.444939 -0.936888
v -2.579329 -0.555061 -0.936888
v -1.713303 -1.055061 0.057342
v -0.847278 -0.555061 0.583045
v -0.847278 0.444939 0.583045
v -1.713303 0.944939 0.057343
v 1.738223 -2.064108 -0.936888
v 1.738222 -1.064108 0.057342
v 0.873584 -0.557038 0.590886
v 0.007559 -1.057039 0.590886
v 0.006172 -2.064108 0.057342
v 0.872197 -2.564108 -0.936888
v 1.738222 0.952262 0.057343
v 1.738222 1.952262 -0.936888
v 0.872197 2.452262 -0.936888
v 0.006172 1.952262 0.057343
v 0.006172 0.952262 0.598453
v 0.872197 0.452262 0.598453
v 2.598534 -0.558508 -0.936888
v 2.598534 0.441492 -0.936888
v 1.732508 0.941492 0.057343
v 0.866483 0.441492 0.606264
v 0.866483 -0.558508 0.606265
v 1.732508 -1.058508 0.057342
vt 0.925421 0.965550
vt 0.784850 1.000000
vt 0.644279 0.767235
vt 1.000000 0.194115
vt 0.709019 0.194115
vt 0.838716 0.000000
vt 0.919467 0.732785
vt 0.644279 0.538670
vt 0.935260 0.538670
vt 0.354509 0.162399
vt 0.443137 0.000000
vt 0.709019 0.162399
vt 0.354509 0.540020
vt 0.644279 0.540020
vt 0.515082 0.734645
vt 0.015687 0.377605
vt 0.289769 0.572231
vt 0.000000 0.572231
vt 0.354509 0.212912
vt 0.265882 0.377605
vt 0.000000 0.212912
vt 0.784850 0.732785
vt 0.925421 0.831942
vt 0.644279 0.900842
vt 0.984207 0.000000
vt 0.913608 0.357683
vt 0.768117 0.357683
vt 0.848867 0.375102
vt 0.773976 0.732785
vt 0.703377 0.375102
vt 0.620391 0.375102
vt 0.443137 0.375102
vt 0.620391 0.000000
vt 0.370197 0.734645
vt 0.439822 0.375102
vt 0.584707 0.375102
vt 0.086931 0.736843
vt 0.160572 0.377605
vt 0.231815 0.736843
vt 0.088627 0.000000
vt 0.265882 0.000000
vt 0.088627 0.377605
vn 0.0000 -0.0000 1.0000
vn -0.3247 0.5625 0.7604
vn -0.3770 0.6530 0.6568
vn -0.3770 -0.6530 0.6568
vn -0.3247 -0.5625 0.7604
vn -0.6490 -0.0000 0.7608
vn -0.5189 -0.0000 0.8548
vn 0.3250 -0.5630 0.7599
vn 0.3252 -0.5633 0.7596
vn 0.3770 -0.6530 0.6568
vn 0.3770 0.6530 0.6568
vn 0.3268 0.5660 0.7569
vn 0.6558 -0.0000 0.7549
vn 0.5354 -0.0000 0.8446
vn -0.2600 0.4503 0.8542
vn -0.2600 -0.4503 0.8542
vn -0.7541 0.0000 0.6568
vn 0.2611 -0.4522 0.8529
vn 0.2649 0.4589 0.8481
vn 0.7541 -0.0000 0.6568
usemtl None
s 1
f 3/1/1 4/2/1 6/3/1
f 8/4/2 11/5/2 12/6/3
f 14/7/4 16/8/5 13/9/5
f 21/10/6 22/11/7 24/12/6
f 26/13/8 29/14/9 30/15/10
f 32/16/11 34/17/12 31/18/12
f 39/19/13 40/20/14 42/21/13
f 6/3/1 1/22/1 2/23/1
f 2/23/1 3/1/1 6/3/1
f 4/2/1 5/24/1 6/3/1
f 12/6/3 7/25/3 8/4/2
f 8/4/2 9/26/15 10/27/15
f 10/27/15 11/5/2 8/4/2
f 18/28/16 13/9/5 16/8/5
f 14/7/4 15/29/4 16/8/5
f 16/8/5 17/30/16 18/28/16
f 24/12/6 19/31/17 20/32/17
f 20/32/17 21/10/6 24/12/6
f 22/11/7 23/33/7 24/12/6
f 30/15/10 25/34/10 26/13/8
f 26/13/8 27/35/18 28/36/18
f 28/36/18 29/14/9 26/13/8
f 36/37/19 31/18/12 34/17/12
f 32/16/11 33/38/11 34/17/12
f 34/17/12 35/39/19 36/37/19
f 42/21/13 37/40/20 38/41/20
f 38/41/20 39/19/13 42/21/13
f 40/20/14 41/42/14 42/21/13
